<svg xmlns="http://www.w3.org/2000/svg" viewBox="0 0 36 36" style="height: 24px; width: auto; fill: currentcolor;" class="icon block-add-button new-add-block"><g fill-rule="evenodd"><path d="M19 9 17 9 17 17 9 17 9 19 17 19 17 27 19 27 19 19 27 19 27 17 19 17z"></path><path d="M18,31 C10.832,31 5,25.168 5,18 C5,10.832 10.832,5 18,5 C25.168,5 31,10.832 31,18 C31,25.168 25.168,31 18,31 M18,3 C9.729,3 3,9.729 3,18 C3,26.271 9.729,33 18,33 C26.271,33 33,26.271 33,18 C33,9.729 26.271,3 18,3"></path></g></svg>